<?xml version="1.0" standalone="no"?>
<!DOCTYPE svg PUBLIC "-//W3C//DTD SVG 20010904//EN"
 "http://www.w3.org/TR/2001/REC-SVG-20010904/DTD/svg10.dtd">
<svg version="1.0" xmlns="http://www.w3.org/2000/svg"
 width="800.000000pt" height="800.000000pt" viewBox="0 0 800.000000 800.000000"
 preserveAspectRatio="xMidYMid meet">
<metadata>
Created by potrace 1.14, written by Peter Selinger 2001-2017
</metadata>
<g transform="translate(0.000000,800.000000) scale(0.100000,-0.100000)"
fill="#000000" stroke="none">
<path d="M3715 7480 c-706 -62 -1351 -319 -1900 -756 -141 -113 -416 -388
-529 -529 -417 -524 -668 -1130 -748 -1810 -16 -143 -16 -587 0 -730 80 -680
331 -1286 748 -1810 113 -141 388 -416 529 -529 524 -417 1130 -668 1810 -748
143 -16 587 -16 730 0 680 80 1286 331 1810 748 141 113 416 388 529 529 417
524 668 1130 748 1810 16 143 16 587 0 730 -80 680 -331 1286 -748 1810 -113
141 -388 416 -529 529 -521 415 -1129 667 -1800 746 -122 15 -527 21 -650 10z
m1781 -1461 c57 -53 54 42 54 -1506 0 -1534 1 -1480 -51 -1598 -85 -192 -273
-341 -476 -376 -39 -7 -124 -9 -212 -6 -159 5 -206 17 -321 78 -169 90 -310
297 -327 479 -14 151 98 370 247 481 131 98 241 133 415 133 146 0 249 -21
363 -74 l82 -39 0 625 c0 591 -1 625 -17 620 -17 -5 -301 -72 -1148 -271 -198
-46 -514 -120 -701 -165 -188 -44 -344 -80 -348 -80 -3 0 -6 -405 -6 -899 0
-1001 1 -977 -67 -1119 -55 -113 -177 -234 -293 -291 -108 -52 -195 -71 -340
-71 -218 0 -366 56 -501 190 -84 83 -136 167 -168 274 -53 174 5 361 164 522
142 144 297 201 520 190 137 -6 232 -29 336 -81 l69 -35 0 1175 c0 1292 -3
1223 61 1263 19 11 130 43 249 71 118 27 359 84 535 125 736 172 1324 311
1535 361 251 61 303 64 346 24z"/>
</g>
</svg>
