<?xml version="1.0" encoding="UTF-8" standalone="no"?>
<svg
   xmlns:dc="http://purl.org/dc/elements/1.1/"
   xmlns:cc="http://creativecommons.org/ns#"
   xmlns:rdf="http://www.w3.org/1999/02/22-rdf-syntax-ns#"
   xmlns:svg="http://www.w3.org/2000/svg"
   xmlns="http://www.w3.org/2000/svg"
   xmlns:sodipodi="http://sodipodi.sourceforge.net/DTD/sodipodi-0.dtd"
   xmlns:inkscape="http://www.inkscape.org/namespaces/inkscape"
   id="Layer"
   enable-background="new 0 0 64 64"
   height="512"
   viewBox="0 0 64 64"
   width="512"
   version="1.1"
   sodipodi:docname="back.svg"
   inkscape:version="1.0.2-2 (e86c870879, 2021-01-15)">
  <metadata
     id="metadata26">
    <rdf:RDF>
      <cc:Work
         rdf:about="">
        <dc:format>image/svg+xml</dc:format>
        <dc:type
           rdf:resource="http://purl.org/dc/dcmitype/StillImage" />
        <dc:title></dc:title>
      </cc:Work>
    </rdf:RDF>
  </metadata>
  <defs
     id="defs24" />
  <sodipodi:namedview
     pagecolor="#ffffff"
     bordercolor="#666666"
     borderopacity="1"
     objecttolerance="10"
     gridtolerance="10"
     guidetolerance="10"
     inkscape:pageopacity="0"
     inkscape:pageshadow="2"
     inkscape:window-width="1259"
     inkscape:window-height="758"
     id="namedview22"
     showgrid="false"
     inkscape:zoom="0.82519531"
     inkscape:cx="257.86435"
     inkscape:cy="253.96003"
     inkscape:window-x="0"
     inkscape:window-y="0"
     inkscape:window-maximized="0"
     inkscape:current-layer="Layer" />
  <path
     d="M 61.081657,29.379018 H 8.3394284 L 28.535317,10.308204 C 29.592832,9.3095808 29.633811,7.6504513 28.626528,6.6020283 27.620567,5.5549159 25.94705,5.5129789 24.888213,6.5116019 L 1.8238154,28.29259 c -0.9980296,0.99076 -1.54925918,2.30653 -1.54925918,3.707486 0,1.399644 0.55122958,2.716726 1.59552548,3.750733 l 23.0194533,21.73643 c 0.511573,0.483585 1.167232,0.723412 1.822891,0.723412 0.69796,0 1.39592,-0.27259 1.915424,-0.813838 1.007283,-1.048423 0.966304,-2.706242 -0.09121,-3.704865 L 8.2561491,34.621133 H 61.081657 c 1.45937,0 2.643787,-1.174234 2.643787,-2.621057 0,-1.446824 -1.184417,-2.621058 -2.643787,-2.621058 z"
     id="path19"
     style="fill:#ffffff;stroke-width:1.3162" />
</svg>
