<svg xmlns="http://www.w3.org/2000/svg" width="16.96" height="19.297" viewBox="0 0 16.96 19.297">
  <g id="balloons" transform="translate(-31)">
    <path id="Path_15" data-name="Path 15" d="M40.624,2.785A5.088,5.088,0,0,0,31,5.088c0,2.544,1.883,6.172,4.43,6.714L34.5,13.285h.567a2.538,2.538,0,0,0-.539,1.569,1.422,1.422,0,0,0,.684,1.11c.646.42-.37,1.838-.37,2.745h1.131c0-.623,1.411-2.682-.144-3.693a.3.3,0,0,1-.172-.246,2.768,2.768,0,0,1,.858-1.485h1.157L36.746,11.8a4.135,4.135,0,0,0,1.913-1.046,5.8,5.8,0,0,0,3.555,3.307l-.928,1.484h.968a1.533,1.533,0,0,0,.383,1.72c.428.428,1.255.844,1.255,2.03h1.131a3.285,3.285,0,0,0-1.378-2.647c-.324-.273-.624-.486-.062-1.1h.875l-.927-1.484c2.552-.543,4.43-4.176,4.43-6.714a5.094,5.094,0,0,0-7.336-4.565Zm-4.536,7.957c-2.146,0-3.957-3.472-3.957-5.653a3.957,3.957,0,1,1,7.915,0C40.045,7.269,38.234,10.741,36.088,10.741ZM42.872,13c-1.526,0-2.79-1.749-3.39-3.165A7.7,7.7,0,0,0,41.023,3.85a3.963,3.963,0,0,1,5.806,3.5C46.829,9.53,45.018,13,42.872,13Z" fill="#fff"/>
  </g>
</svg>
