<svg xmlns="http://www.w3.org/2000/svg" width="20.51" height="15.945" viewBox="0 0 20.51 15.945">
  <g id="_x31_1-DSLR_Camera" transform="translate(0 -34.2)">
    <path id="Path_13" data-name="Path 13" d="M19.016,36.332H13.586l-1.1-1.842a.6.6,0,0,0-.511-.29H8.531a.594.594,0,0,0-.511.29l-1.1,1.842H5.142v-.406a.594.594,0,0,0-.594-.594h-2.2a.594.594,0,0,0-.594.594v.406H1.495A1.5,1.5,0,0,0,0,37.827V48.65a1.5,1.5,0,0,0,1.495,1.495H19.016A1.5,1.5,0,0,0,20.51,48.65V37.827A1.5,1.5,0,0,0,19.016,36.332Zm-8.76,11.162a4.255,4.255,0,1,1,4.255-4.255A4.255,4.255,0,0,1,10.255,47.494Zm7.828-8.08H16.22a.595.595,0,0,1,0-1.189h1.863a.595.595,0,0,1,0,1.189Z" fill="#323232"/>
    <circle id="Ellipse_2" data-name="Ellipse 2" cx="2.973" cy="2.973" r="2.973" transform="translate(7.283 40.266)" fill="#323232"/>
  </g>
</svg>
