<svg id="information" xmlns="http://www.w3.org/2000/svg" width="19.297" height="19.297" viewBox="0 0 19.297 19.297">
  <g id="Group_26" data-name="Group 26">
    <g id="Group_25" data-name="Group 25">
      <circle id="Ellipse_5" data-name="Ellipse 5" cx="0.942" cy="0.942" r="0.942" transform="translate(8.706 13.323)" fill="#fff"/>
      <path id="Path_16" data-name="Path 16" d="M9.648,0A9.648,9.648,0,1,0,19.3,9.648,9.643,9.643,0,0,0,9.648,0Zm0,17.789a8.141,8.141,0,1,1,8.141-8.141A8.136,8.136,0,0,1,9.648,17.789Z" fill="#fff"/>
      <path id="Path_17" data-name="Path 17" d="M179.015,128.5A3.019,3.019,0,0,0,176,131.515a.754.754,0,0,0,1.508,0,1.508,1.508,0,1,1,1.508,1.508.754.754,0,0,0-.754.754v1.884a.754.754,0,0,0,1.508,0v-1.226a3.015,3.015,0,0,0-.754-5.935Z" transform="translate(-169.367 -123.657)" fill="#fff"/>
    </g>
  </g>
</svg>
