<svg id="menu" xmlns="http://www.w3.org/2000/svg" width="22.728" height="16.414" viewBox="0 0 22.728 16.414">
  <path id="Path_19" data-name="Path 19" d="M21.781,124.562H.947a.947.947,0,0,1,0-1.894H21.781a.947.947,0,0,1,0,1.894Zm0,0" transform="translate(0 -115.408)" fill="#fff"/>
  <path id="Path_20" data-name="Path 20" d="M21.781,1.894H.947A.947.947,0,0,1,.947,0H21.781a.947.947,0,0,1,0,1.894Zm0,0" fill="#fff"/>
  <path id="Path_21" data-name="Path 21" d="M21.781,247.226H.947a.947.947,0,1,1,0-1.894H21.781a.947.947,0,1,1,0,1.894Zm0,0" transform="translate(0 -230.812)" fill="#fff"/>
</svg>
