<svg xmlns="http://www.w3.org/2000/svg" width="16.652" height="17.555" viewBox="0 0 16.652 17.555">
  <path id="musical-note" d="M16.43.157a.579.579,0,0,0-.5-.123L5.224,2.542a.621.621,0,0,0-.466.612v9.92a3.308,3.308,0,0,0-1.784-.514A2.774,2.774,0,0,0,0,15.068a2.774,2.774,0,0,0,2.974,2.508,2.774,2.774,0,0,0,2.974-2.508V7.419l9.516-2.23v5.376a3.308,3.308,0,0,0-1.784-.514,2.773,2.773,0,0,0-2.974,2.508,2.773,2.773,0,0,0,2.974,2.508,2.773,2.773,0,0,0,2.974-2.508V.646A.637.637,0,0,0,16.43.157Z" transform="translate(0 -0.021)" fill="#323232"/>
</svg>
