<?xml version="1.0" encoding="UTF-8" standalone="no"?>
<svg
   xmlns:dc="http://purl.org/dc/elements/1.1/"
   xmlns:cc="http://creativecommons.org/ns#"
   xmlns:rdf="http://www.w3.org/1999/02/22-rdf-syntax-ns#"
   xmlns:svg="http://www.w3.org/2000/svg"
   xmlns="http://www.w3.org/2000/svg"
   xmlns:sodipodi="http://sodipodi.sourceforge.net/DTD/sodipodi-0.dtd"
   xmlns:inkscape="http://www.inkscape.org/namespaces/inkscape"
   width="16.652"
   height="17.555"
   viewBox="0 0 16.652 17.555"
   version="1.1"
   id="svg3"
   sodipodi:docname="musical-note-small.svg"
   inkscape:version="1.0.2-2 (e86c870879, 2021-01-15)">
  <metadata
     id="metadata9">
    <rdf:RDF>
      <cc:Work
         rdf:about="">
        <dc:format>image/svg+xml</dc:format>
        <dc:type
           rdf:resource="http://purl.org/dc/dcmitype/StillImage" />
        <dc:title></dc:title>
      </cc:Work>
    </rdf:RDF>
  </metadata>
  <defs
     id="defs7" />
  <sodipodi:namedview
     pagecolor="#ffffff"
     bordercolor="#666666"
     borderopacity="1"
     objecttolerance="10"
     gridtolerance="10"
     guidetolerance="10"
     inkscape:pageopacity="0"
     inkscape:pageshadow="2"
     inkscape:window-width="1920"
     inkscape:window-height="1010"
     id="namedview5"
     showgrid="false"
     inkscape:zoom="17.018092"
     inkscape:cx="17.697848"
     inkscape:cy="14.20752"
     inkscape:window-x="-7"
     inkscape:window-y="-7"
     inkscape:window-maximized="1"
     inkscape:current-layer="svg3" />
  <path
     id="musical-note"
     d="M 14.146086,1.9870392 A 0.45502793,0.45502793 0 0 0 13.753143,1.8903752 L 5.3394488,3.8613771 A 0.48803514,0.48803514 0 0 0 4.973226,4.3423392 V 12.138327 A 2.5997105,2.5997105 0 0 0 3.5712055,11.734382 2.1800475,2.1800475 0 0 0 1.2339809,13.705384 2.1800475,2.1800475 0 0 0 3.5712055,15.676386 2.1800475,2.1800475 0 0 0 5.9084302,13.705384 V 7.6941425 L 13.38692,5.941617 V 10.16654 A 2.5997105,2.5997105 0 0 0 11.9849,9.7625942 2.1792616,2.1792616 0 0 0 9.6476752,11.733596 2.1792616,2.1792616 0 0 0 11.9849,13.704598 2.1792616,2.1792616 0 0 0 14.322125,11.733596 V 2.3713374 A 0.50060931,0.50060931 0 0 0 14.146086,1.9870392 Z"
     fill="#323232"
     style="stroke-width:0.785886" />
</svg>
