<svg xmlns="http://www.w3.org/2000/svg" width="16.437" height="16.437" viewBox="0 0 16.437 16.437">
  <g id="search-interface-symbol" transform="translate(-0.006)">
    <g id="_x34__4_" transform="translate(0.006)">
      <g id="Group_34" data-name="Group 34">
        <path id="Path_24" data-name="Path 24" d="M16.287,15.543l-4.244-4.176a6.712,6.712,0,0,0,1.794-4.561A6.862,6.862,0,0,0,6.921,0,6.861,6.861,0,0,0,.006,6.805a6.861,6.861,0,0,0,6.915,6.805,6.955,6.955,0,0,0,4.353-1.52l4.26,4.192a.538.538,0,0,0,.752,0A.518.518,0,0,0,16.287,15.543ZM6.921,12.564A5.805,5.805,0,0,1,1.07,6.805,5.805,5.805,0,0,1,6.921,1.047a5.805,5.805,0,0,1,5.851,5.758A5.805,5.805,0,0,1,6.921,12.564Z" transform="translate(-0.006)" fill="#7e7e7e"/>
      </g>
    </g>
  </g>
</svg>
