<svg xmlns="http://www.w3.org/2000/svg" width="16.494" height="17.594" viewBox="0 0 16.494 17.594">
  <path id="Path_12" data-name="Path 12" d="M29.4,11.408a3.09,3.09,0,0,0-2.487,1.257L22.06,10.184a3.093,3.093,0,0,0-.1-2.032L27.047,5.1a3.08,3.08,0,1,0-.529-.885l-5.1,3.064a3.092,3.092,0,1,0,.19,3.835l4.84,2.474A3.093,3.093,0,1,0,29.4,11.408Zm0-10.378A2.062,2.062,0,1,1,27.34,3.093,2.064,2.064,0,0,1,29.4,1.031ZM19.093,11.374a2.062,2.062,0,1,1,2.062-2.062A2.064,2.064,0,0,1,19.093,11.374ZM29.4,16.563A2.062,2.062,0,1,1,31.463,14.5,2.064,2.064,0,0,1,29.4,16.563Z" transform="translate(-16)" fill="#fff"/>
</svg>
