<?xml version="1.0" encoding="UTF-8" standalone="no"?>
<svg
   xmlns:dc="http://purl.org/dc/elements/1.1/"
   xmlns:cc="http://creativecommons.org/ns#"
   xmlns:rdf="http://www.w3.org/1999/02/22-rdf-syntax-ns#"
   xmlns:svg="http://www.w3.org/2000/svg"
   xmlns="http://www.w3.org/2000/svg"
   xmlns:sodipodi="http://sodipodi.sourceforge.net/DTD/sodipodi-0.dtd"
   xmlns:inkscape="http://www.inkscape.org/namespaces/inkscape"
   id="Bold"
   enable-background="new 0 0 24 24"
   height="512"
   viewBox="0 0 24 24"
   width="512"
   version="1.1"
   sodipodi:docname="spotify.svg"
   inkscape:version="1.0.2-2 (e86c870879, 2021-01-15)">
  <metadata
     id="metadata9">
    <rdf:RDF>
      <cc:Work
         rdf:about="">
        <dc:format>image/svg+xml</dc:format>
        <dc:type
           rdf:resource="http://purl.org/dc/dcmitype/StillImage" />
        <dc:title></dc:title>
      </cc:Work>
    </rdf:RDF>
  </metadata>
  <defs
     id="defs7" />
  <sodipodi:namedview
     pagecolor="#ffffff"
     bordercolor="#666666"
     borderopacity="1"
     objecttolerance="10"
     gridtolerance="10"
     guidetolerance="10"
     inkscape:pageopacity="0"
     inkscape:pageshadow="2"
     inkscape:window-width="1920"
     inkscape:window-height="1010"
     id="namedview5"
     showgrid="false"
     inkscape:zoom="1.6503906"
     inkscape:cx="256"
     inkscape:cy="256"
     inkscape:window-x="-7"
     inkscape:window-y="-7"
     inkscape:window-maximized="1"
     inkscape:current-layer="Bold" />
  <path
     d="m12 24c6.624 0 12-5.376 12-12s-5.376-12-12-12-12 5.376-12 12 5.376 12 12 12zm4.872-6.344v.001c-.807 0-3.356-2.828-10.52-1.36-.189.049-.436.126-.576.126-.915 0-1.09-1.369-.106-1.578 3.963-.875 8.013-.798 11.467 1.268.824.526.474 1.543-.265 1.543zm1.303-3.173c-.113-.03-.08.069-.597-.203-3.025-1.79-7.533-2.512-11.545-1.423-.232.063-.358.126-.576.126-1.071 0-1.355-1.611-.188-1.94 4.716-1.325 9.775-.552 13.297 1.543.392.232.547.533.547.953-.005.522-.411.944-.938.944zm-13.627-7.485c4.523-1.324 11.368-.906 15.624 1.578 1.091.629.662 2.22-.498 2.22l-.001-.001c-.252 0-.407-.063-.625-.189-3.443-2.056-9.604-2.549-13.59-1.436-.175.048-.393.125-.625.125-.639 0-1.127-.499-1.127-1.142 0-.657.407-1.029.842-1.155z"
     id="path2"
     style="fill:#ffffff" />
</svg>
