<?xml version="1.0" encoding="UTF-8" standalone="no"?>
<svg
   xmlns:dc="http://purl.org/dc/elements/1.1/"
   xmlns:cc="http://creativecommons.org/ns#"
   xmlns:rdf="http://www.w3.org/1999/02/22-rdf-syntax-ns#"
   xmlns:svg="http://www.w3.org/2000/svg"
   xmlns="http://www.w3.org/2000/svg"
   xmlns:sodipodi="http://sodipodi.sourceforge.net/DTD/sodipodi-0.dtd"
   xmlns:inkscape="http://www.inkscape.org/namespaces/inkscape"
   version="1.1"
   id="Capa_1"
   x="0px"
   y="0px"
   viewBox="0 0 512 512"
   style="enable-background:new 0 0 512 512;"
   xml:space="preserve"
   sodipodi:docname="tick.svg"
   inkscape:version="1.0.2-2 (e86c870879, 2021-01-15)"><metadata
   id="metadata49"><rdf:RDF><cc:Work
       rdf:about=""><dc:format>image/svg+xml</dc:format><dc:type
         rdf:resource="http://purl.org/dc/dcmitype/StillImage" /><dc:title></dc:title></cc:Work></rdf:RDF></metadata><defs
   id="defs47" /><sodipodi:namedview
   pagecolor="#ffffff"
   bordercolor="#666666"
   borderopacity="1"
   objecttolerance="10"
   gridtolerance="10"
   guidetolerance="10"
   inkscape:pageopacity="0"
   inkscape:pageshadow="2"
   inkscape:window-width="1920"
   inkscape:window-height="1010"
   id="namedview45"
   showgrid="false"
   inkscape:zoom="0.82519531"
   inkscape:cx="323.88283"
   inkscape:cy="315.36432"
   inkscape:window-x="-7"
   inkscape:window-y="-7"
   inkscape:window-maximized="1"
   inkscape:current-layer="Capa_1" />
<g
   id="g6"
   style="fill:#1db954;fill-opacity:1">
	<g
   id="g4"
   style="fill:#1db954;fill-opacity:1">
		<path
   d="M256,0C114.833,0,0,114.833,0,256s114.833,256,256,256s256-114.853,256-256S397.167,0,256,0z M256,472.341    c-119.275,0-216.341-97.046-216.341-216.341S136.725,39.659,256,39.659c119.295,0,216.341,97.046,216.341,216.341    S375.275,472.341,256,472.341z"
   id="path2"
   style="fill:#1db954;fill-opacity:1" />
	</g>
</g>
<g
   id="g12"
   style="fill:#1db954;fill-opacity:1">
	<g
   id="g10"
   style="fill:#1db954;fill-opacity:1">
		<path
   d="M373.451,166.965c-8.071-7.337-20.623-6.762-27.999,1.348L224.491,301.509l-58.438-59.409    c-7.714-7.813-20.246-7.932-28.039-0.238c-7.813,7.674-7.932,20.226-0.238,28.039l73.151,74.361    c3.748,3.807,8.824,5.929,14.138,5.929c0.119,0,0.258,0,0.377,0.02c5.473-0.119,10.629-2.459,14.297-6.504l135.059-148.722    C382.156,186.854,381.561,174.322,373.451,166.965z"
   id="path8"
   style="fill:#1db954;fill-opacity:1" />
	</g>
</g>
<g
   id="g14">
</g>
<g
   id="g16">
</g>
<g
   id="g18">
</g>
<g
   id="g20">
</g>
<g
   id="g22">
</g>
<g
   id="g24">
</g>
<g
   id="g26">
</g>
<g
   id="g28">
</g>
<g
   id="g30">
</g>
<g
   id="g32">
</g>
<g
   id="g34">
</g>
<g
   id="g36">
</g>
<g
   id="g38">
</g>
<g
   id="g40">
</g>
<g
   id="g42">
</g>
</svg>
