<?xml version="1.0" encoding="UTF-8" standalone="no"?>
<svg
   xmlns:dc="http://purl.org/dc/elements/1.1/"
   xmlns:cc="http://creativecommons.org/ns#"
   xmlns:rdf="http://www.w3.org/1999/02/22-rdf-syntax-ns#"
   xmlns:svg="http://www.w3.org/2000/svg"
   xmlns="http://www.w3.org/2000/svg"
   xmlns:sodipodi="http://sodipodi.sourceforge.net/DTD/sodipodi-0.dtd"
   xmlns:inkscape="http://www.inkscape.org/namespaces/inkscape"
   width="13.106"
   height="16.676"
   viewBox="0 0 13.106 16.676"
   version="1.1"
   id="svg5"
   sodipodi:docname="trash-grey.svg"
   inkscape:version="1.0.2-2 (e86c870879, 2021-01-15)">
  <metadata
     id="metadata11">
    <rdf:RDF>
      <cc:Work
         rdf:about="">
        <dc:format>image/svg+xml</dc:format>
        <dc:type
           rdf:resource="http://purl.org/dc/dcmitype/StillImage" />
        <dc:title></dc:title>
      </cc:Work>
    </rdf:RDF>
  </metadata>
  <defs
     id="defs9" />
  <sodipodi:namedview
     pagecolor="#ffffff"
     bordercolor="#666666"
     borderopacity="1"
     objecttolerance="10"
     gridtolerance="10"
     guidetolerance="10"
     inkscape:pageopacity="0"
     inkscape:pageshadow="2"
     inkscape:window-width="1920"
     inkscape:window-height="1010"
     id="namedview7"
     showgrid="false"
     inkscape:zoom="50.671622"
     inkscape:cx="6.553"
     inkscape:cy="8.3380003"
     inkscape:window-x="-7"
     inkscape:window-y="-7"
     inkscape:window-maximized="1"
     inkscape:current-layer="svg5" />
  <g
     id="garbage-can"
     transform="translate(-54.798)"
     style="fill:#e6e6e6">
    <path
       id="Path_34"
       data-name="Path 34"
       d="M67.414,4.723a.488.488,0,0,0,.454-.668A3.1,3.1,0,0,0,65,2.117h-.6A2.594,2.594,0,0,0,61.872,0H60.83A2.594,2.594,0,0,0,58.3,2.117h-.6a3.1,3.1,0,0,0-2.87,1.937.488.488,0,0,0,.455.668ZM60.83.977h1.042a1.6,1.6,0,0,1,1.523,1.14H59.307A1.6,1.6,0,0,1,60.83.977Z"
       transform="translate(0)"
       fill="#fff"
       style="fill:#e6e6e6" />
    <path
       id="Path_35"
       data-name="Path 35"
       d="M90.716,184.614a1.471,1.471,0,0,0,1.462,1.362H98.7a1.471,1.471,0,0,0,1.462-1.362l.685-9.614H90.031Zm6.057-7a.489.489,0,0,1,.976.049l-.261,5.211a.489.489,0,0,1-.976-.049Zm-3.184-.464a.489.489,0,0,1,.512.464l.261,5.211a.489.489,0,0,1-.976.049l-.261-5.211A.489.489,0,0,1,93.588,177.15Z"
       transform="translate(-34.086 -169.3)"
       fill="#fff"
       style="fill:#e6e6e6" />
  </g>
</svg>
