<svg xmlns="http://www.w3.org/2000/svg" width="15.232" height="18.258" viewBox="0 0 15.232 18.258">
  <g id="user" transform="translate(0 0)">
    <path id="Path_48" data-name="Path 48" d="M91.429,8.795a4.255,4.255,0,0,0,3.109-1.288A4.255,4.255,0,0,0,95.827,4.4a4.255,4.255,0,0,0-1.288-3.109,4.4,4.4,0,0,0-6.218,0A4.255,4.255,0,0,0,87.032,4.4,4.255,4.255,0,0,0,88.32,7.507,4.256,4.256,0,0,0,91.429,8.795Zm0,0" transform="translate(-83.928 0)" fill="#fff"/>
    <path id="Path_49" data-name="Path 49" d="M15.2,252.536a10.863,10.863,0,0,0-.148-1.154,9.09,9.09,0,0,0-.284-1.16,5.731,5.731,0,0,0-.477-1.082,4.081,4.081,0,0,0-.719-.937,3.17,3.17,0,0,0-1.033-.649,3.569,3.569,0,0,0-1.319-.239,1.338,1.338,0,0,0-.715.3c-.214.14-.465.3-.745.48a4.266,4.266,0,0,1-.963.424,3.741,3.741,0,0,1-2.357,0,4.259,4.259,0,0,1-.963-.424c-.277-.177-.528-.339-.745-.48a1.337,1.337,0,0,0-.714-.3,3.565,3.565,0,0,0-1.318.239,3.168,3.168,0,0,0-1.033.649,4.082,4.082,0,0,0-.719.937,5.742,5.742,0,0,0-.477,1.082,9.113,9.113,0,0,0-.284,1.16,10.824,10.824,0,0,0-.148,1.154c-.024.349-.036.712-.036,1.078a3.032,3.032,0,0,0,.9,2.294,3.241,3.241,0,0,0,2.32.846h8.791a3.241,3.241,0,0,0,2.32-.846,3.03,3.03,0,0,0,.9-2.294c0-.368-.013-.731-.037-1.078Zm0,0" transform="translate(0 -238.497)" fill="#fff"/>
  </g>
</svg>
